# xmcd
# 
# Track frame offsets:
#     150
#     33780
#     55688
#     80268
#     103453
#     120373
#     147258
#     171200
#     188048
#     202610
#     221603
#     241050
#     255590
#     281198
# 
# Disc length: 3981
# 
# Revision: 10
# Processed by: cddbd v1.5.2PL0 Copyright (c) Steve Scherf et al.
# Submitted via: fre:ac v1.0.31
# 
DISCID=bb0f8b0e
DTITLE=Lilith Fair - A Celebration Of Woman In Music Vol. 2
DYEAR=1999
DGENRE=Rock/Pop
TTITLE0=Sinéad O'Connor - Fire On Babylon
TTITLE1=Angelique Kidjo - Never Know
TTITLE2=Queen Latifah - Life
TTITLE3=Heather Nova - Island
TTITLE4=Shawn Colvin - New Thing Now
TTITLE5=Sarah McLachlan and Emmylou Harris - Angel
TTITLE6=Morcheeba - The Sea
TTITLE7=Lisa Loeb - I Do
TTITLE8=Bie Runga - Sway
TTITLE9=Natalie Merchant - In The Ghetto
TTITLE10=Cowboy Junkies - Miles From Our Home
TTITLE11=Tracy Bonham - Meat Hook
TTITLE12=Holly McNarland - Elmo
TTITLE13=Wild Strawberries - Trampoline
EXTD=YEAR: 1999
EXTT0=Sinéad O'Connor
EXTT1=Angelique Kidjo
EXTT2=Queen Latifah
EXTT3=Heather Nova
EXTT4=Shawn Colvin
EXTT5=Sarah McLachlan and Emmylou Harris
EXTT6=Morcheeba
EXTT7=Lisa Loeb
EXTT8=Bic Runga
EXTT9=Natalie Merchant
EXTT10=Cowboy Junkies
EXTT11=Tracy Bonham
EXTT12=Holly McNarland
EXTT13=Wild Strawberries
PLAYORDER=
